<svg width="18" height="18" viewBox="0 0 18 18" fill="none" xmlns="http://www.w3.org/2000/svg">
<path fill-rule="evenodd" clip-rule="evenodd" d="M8.0625 1.5C4.43813 1.5 1.5 4.43813 1.5 8.0625C1.5 11.6869 4.43813 14.625 8.0625 14.625C9.87316 14.625 11.5115 13.8925 12.6995 12.7062C13.8898 11.5177 14.625 9.87655 14.625 8.0625C14.625 4.43813 11.6869 1.5 8.0625 1.5ZM0.25 8.0625C0.25 3.74778 3.74778 0.25 8.0625 0.25C12.3772 0.25 15.875 3.74778 15.875 8.0625C15.875 9.99631 15.1717 11.7668 14.0081 13.1307L17.5665 16.6827C17.8108 16.9265 17.8112 17.3222 17.5673 17.5665C17.3235 17.8108 16.9278 17.8112 16.6835 17.5673L13.1237 14.0141C11.7607 15.1742 9.99296 15.875 8.0625 15.875C3.74778 15.875 0.25 12.3772 0.25 8.0625Z" fill="#838383"/>
</svg>
